<?xml version="1.0" encoding="UTF-8"?>
<svg xmlns="http://www.w3.org/2000/svg" width="491" height="111" viewBox="0 0 491 111" fill="none">
  <path fill-rule="evenodd" clip-rule="evenodd" d="M20.19 0C9.04 0 0 9.04 0 20.19V90.49C0 101.64 9.04 110.68 20.19 110.68H105.45C116.6 110.68 125.64 101.64 125.64 90.49V20.19C125.64 9.04 116.6 0 105.45 0H20.19ZM29.65 84.13C32.63 87.12 36.67 88.8 40.88 88.8C52.71 88.8 60.58 74.61 60.34 56.04C60.45 50.88 59.72 45.74 58.2 40.82C57.97 39.97 57.94 39.09 58.1 38.22C58.26 37.36 58.62 36.54 59.14 35.84C59.66 35.13 60.33 34.56 61.1 34.15C61.87 33.74 62.73 33.51 63.6 33.48C69.8 33.48 72.81 45.51 72.81 56.04C72.81 59.23 72.24 62.34 71.69 65.28C71.2 67.91 70.74 70.4 70.74 72.7C70.74 76.93 72.41 80.98 75.39 83.97C78.37 86.96 82.41 88.64 86.62 88.64C101.47 88.64 105.21 70.71 105.21 56.04C104.92 44.05 101.85 32.28 96.23 21.69L87.17 25.99C92.01 35.29 94.73 45.55 95.11 56.04C95.11 64.33 93.68 78.6 86.53 78.6C81.13 78.6 80.33 74.3 81.13 70.63C82.3 65.97 82.88 61.17 82.88 56.36C82.88 44.88 79.54 23.76 63.66 23.76C61.25 23.79 58.89 24.37 56.73 25.46C54.58 26.54 52.7 28.11 51.24 30.02C49.78 31.94 48.77 34.17 48.29 36.53C47.81 38.9 47.88 41.34 48.48 43.68C49.65 47.8 50.3 52.06 50.39 56.35C50.39 68.23 45.86 78.91 40.7 78.91C39.77 78.88 38.85 78.62 38.03 78.17C37.21 77.72 36.51 77.08 35.98 76.3C35.45 75.52 35.12 74.64 35 73.7C34.88 72.77 34.98 71.82 35.29 70.94C36.81 66.22 37.64 61.31 37.75 56.35C37.72 50.9 36.72 45.51 34.81 40.41C32.04 33.64 28.26 27.32 23.61 21.68L15.67 27.82C22.76 35.74 27.01 45.81 27.74 56.43C27.25 61.97 26.32 67.46 24.96 72.85C24.96 77.08 26.63 81.13 29.61 84.12L29.65 84.13Z" fill="#331355"></path>
  <path d="M169.39 89.8298C165.04 89.8298 160.87 88.0998 157.8 85.0298C154.73 81.9498 153 77.7798 153 73.4298C154.4 67.8798 155.36 62.2398 155.87 56.5398C155.11 45.6098 150.72 35.2498 143.41 27.0998L151.61 20.7798C156.41 26.5898 160.31 33.0798 163.17 40.0498C165.14 45.2898 166.17 50.8498 166.2 56.4498C166.08 61.5498 165.22 66.5998 163.66 71.4598C163.34 72.3698 163.23 73.3398 163.36 74.2998C163.48 75.2598 163.83 76.1698 164.37 76.9698C164.91 77.7698 165.64 78.4298 166.48 78.8998C167.33 79.3698 168.27 79.6298 169.23 79.6598C174.56 79.6598 179.23 68.6698 179.23 56.4498C179.14 52.0398 178.48 47.6498 177.26 43.4098C176.64 40.9998 176.57 38.4898 177.06 36.0498C177.55 33.6098 178.59 31.3198 180.1 29.3498C181.61 27.3798 183.55 25.7698 185.77 24.6498C187.99 23.5298 190.43 22.9398 192.92 22.8998C209.32 22.8998 212.76 44.6298 212.76 56.4398C212.76 61.3898 212.16 66.3198 210.96 71.1198C210.14 74.8898 210.96 79.3198 216.54 79.3198C223.92 79.3198 225.39 64.6398 225.39 56.1098C224.99 45.3198 222.19 34.7598 217.19 25.1898L226.54 20.7598C232.33 31.6598 235.5 43.7598 235.8 56.1098C235.8 71.1998 231.95 89.6498 216.62 89.6498C212.27 89.6498 208.1 87.9198 205.03 84.8498C201.95 81.7698 200.23 77.5998 200.23 73.2498C200.23 68.2498 202.36 62.3398 202.36 56.1098C202.36 45.2798 199.25 32.8998 192.85 32.8998C191.95 32.9298 191.07 33.1598 190.27 33.5798C189.47 33.9998 188.78 34.5898 188.24 35.3198C187.7 36.0498 187.34 36.8798 187.17 37.7698C187 38.6598 187.04 39.5698 187.27 40.4398C188.85 45.5098 189.6 50.7998 189.48 56.0998C189.73 75.2098 181.61 89.8098 169.39 89.8098V89.8298Z" fill="#331355"></path>
  <path d="M262.951 88.6896H252.621V21.5996H262.951V88.6796V88.6896Z" fill="#331355"></path>
  <path d="M365.272 88.6894H354.692L345.342 35.9594L326.072 88.6894H313.942L294.672 35.9594L285.322 88.6894H274.742L286.792 21.6094H300.322L320.002 75.6494L339.682 21.6094H353.212L365.262 88.6894H365.272Z" fill="#331355"></path>
  <path d="M425.782 69.2502C425.762 74.3802 423.722 79.3002 420.092 82.9402C416.472 86.5802 411.562 88.6402 406.432 88.6902H377.332V21.6002H401.432C403.972 21.5802 406.492 22.0602 408.842 23.0202C411.192 23.9802 413.332 25.4002 415.132 27.1902C416.932 28.9802 418.362 31.1202 419.332 33.4602C420.302 35.8102 420.792 38.3302 420.782 40.8702C420.802 45.1702 419.392 49.3602 416.762 52.7602C419.542 54.5102 421.842 56.9402 423.412 59.8302C424.992 62.7202 425.802 65.9602 425.772 69.2502H425.782ZM387.412 49.9002H401.182C402.372 49.9102 403.552 49.6902 404.662 49.2402C405.762 48.7902 406.772 48.1302 407.612 47.2902C408.462 46.4502 409.132 45.4502 409.592 44.3502C410.052 43.2502 410.282 42.0702 410.282 40.8802C410.292 39.6902 410.062 38.5102 409.612 37.4102C409.152 36.3102 408.482 35.3102 407.632 34.4802C406.782 33.6502 405.772 32.9902 404.662 32.5602C403.552 32.1202 402.372 31.9202 401.182 31.9502H387.412V49.9102V49.9002ZM415.452 69.2502C415.452 66.8602 414.502 64.5602 412.812 62.8702C411.122 61.1802 408.832 60.2302 406.432 60.2302H387.412V78.3502H406.432C408.832 78.3302 411.122 77.3602 412.812 75.6502C414.502 73.9502 415.452 71.6402 415.452 69.2402V69.2502Z" fill="#331355"></path>
  <path d="M490.802 88.6894H479.903L474.492 73.9294H445.883L440.553 88.6894H429.562L454.163 21.6094H466.703L490.802 88.6894ZM470.633 63.5894L460.143 34.6394L449.653 63.5894H470.643H470.633Z" fill="#331355"></path>
  <path d="M480.08 29.1095V26.7995H481.24C481.99 26.7995 482.359 27.0595 482.479 27.7695L482.7 29.0995H483.57L483.29 27.6995C483.15 27.0195 482.88 26.6495 482.13 26.5295C482.86 26.3895 483.46 25.8995 483.46 25.0395C483.46 24.1795 482.81 23.5195 481.66 23.5195H479.27V29.1095H480.07H480.08ZM480.08 24.2595H481.549C482.169 24.2595 482.64 24.5395 482.64 25.1695C482.64 25.7995 482.179 26.0895 481.549 26.0895H480.08V24.2595Z" fill="#331355"></path>
  <path d="M481.191 31.3994C478.431 31.3994 476.191 29.1594 476.191 26.3994C476.191 23.6394 478.431 21.3994 481.191 21.3994C483.951 21.3994 486.191 23.6394 486.191 26.3994C486.191 29.1594 483.951 31.3994 481.191 31.3994ZM481.191 21.8894C478.701 21.8894 476.671 23.9194 476.671 26.4094C476.671 28.8994 478.701 30.9294 481.191 30.9294C483.681 30.9294 485.711 28.8994 485.711 26.4094C485.711 23.9194 483.681 21.8894 481.191 21.8894Z" fill="#331355"></path>
</svg>
