<svg width="283" height="64" viewBox="0 0 283 64" fill="none" xmlns="http://www.w3.org/2000/svg">
<path d="M82.5136 12.9775H89.1449V28.1062H89.5998C89.8389 27.3505 90.1473 26.6643 90.5097 26.0628C90.8721 25.4537 91.2808 24.9139 91.7357 24.4281C92.2832 23.819 92.9078 23.3255 93.6172 22.9322C94.3266 22.539 95.0745 22.246 95.8456 22.0455C96.6167 21.8527 97.3955 21.7525 98.182 21.7525C100.033 21.7525 101.652 22.1303 103.04 22.886C104.435 23.6416 105.515 24.7674 106.286 26.2479C107.057 27.7284 107.443 29.5019 107.443 31.5607V49.3187H100.673V33.6503C100.673 31.8614 100.295 30.4966 99.5391 29.5404C98.7834 28.5843 97.4649 28.1062 95.5912 28.1062C94.5579 28.1062 93.5786 28.299 92.6379 28.6768C91.6972 29.0546 90.903 29.7563 90.2552 30.7896C89.6075 31.8228 89.276 33.2416 89.276 35.0614V49.3264H82.5059V12.993L82.5136 12.9775Z" fill="#323139"/>
<path d="M116.734 17.2726C115.901 16.4398 115.484 15.4297 115.484 14.25C115.484 13.0702 115.901 12.1063 116.734 11.2736C117.566 10.4408 118.576 10.0244 119.756 10.0244C120.936 10.0244 121.9 10.4408 122.733 11.2736C123.565 12.1063 123.982 13.101 123.982 14.25C123.982 15.3989 123.565 16.4398 122.733 17.2726C121.9 18.1054 120.905 18.5218 119.756 18.5218C118.607 18.5218 117.566 18.1054 116.734 17.2726ZM116.441 45.5251V22.2924H123.211V49.3189H116.441V45.5251Z" fill="#323139"/>
<path d="M134.515 56.6978C132.518 55.5643 131.516 54.0067 131.516 52.0404C131.516 51.0689 131.832 50.2206 132.472 49.4958C133.104 48.771 133.906 48.2544 134.878 47.9537V47.545C133.636 46.9975 132.703 46.2881 132.086 45.4091C131.462 44.5301 131.153 43.5893 131.153 42.5946C131.153 42.0472 131.238 41.546 131.4 41.0756C131.57 40.6052 131.786 40.1734 132.055 39.7802C132.387 39.3252 132.788 38.9243 133.258 38.5773C133.729 38.2303 134.253 37.9219 134.824 37.6443V37.2356C134.585 37.0814 134.346 36.8963 134.122 36.665C133.898 36.4414 133.675 36.2023 133.467 35.9633C133.166 35.57 132.896 35.1305 132.672 34.6448C132.449 34.159 132.271 33.6423 132.148 33.0794C132.025 32.5166 131.963 31.9382 131.963 31.3291C131.963 29.2086 132.441 27.4274 133.397 25.9932C134.353 24.5513 135.595 23.4872 137.122 22.7932C138.648 22.0992 140.306 21.7522 142.095 21.7522C143.367 21.7522 144.501 21.999 145.503 22.5002C146.506 23.0014 147.215 23.6568 147.639 24.4742H148.048V18.8838H153.677V31.0592C153.677 32.879 153.214 34.506 152.289 35.9402C151.363 37.3821 150.068 38.5002 148.402 39.3021C146.737 40.104 144.848 40.505 142.727 40.505C141.424 40.505 140.352 40.397 139.504 40.1888C138.81 40.0655 138.062 39.8264 137.276 39.464C137.122 39.7031 137.014 39.9575 136.936 40.212C136.859 40.4664 136.821 40.7826 136.821 41.145C136.821 41.8081 137.029 42.3248 137.438 42.6872C137.846 43.0496 138.548 43.2346 139.55 43.2346H147.408C150.523 43.2346 152.867 43.8129 154.425 44.9619C155.982 46.1108 156.761 47.8226 156.761 50.0973C156.761 51.8245 156.291 53.305 155.35 54.5464C154.409 55.7879 152.967 56.744 151.016 57.4072C149.066 58.0703 146.606 58.4096 143.637 58.4096C139.55 58.4096 136.505 57.839 134.508 56.7055L134.515 56.6978ZM150.006 50.5445C150.006 49.8197 149.713 49.3262 149.12 49.064C148.526 48.8096 147.585 48.6785 146.282 48.6785H138.378C137.923 49.2259 137.7 49.7966 137.7 50.4057C137.7 51.0149 137.931 51.5007 138.402 51.8785C138.872 52.2563 139.566 52.5262 140.491 52.6958C141.416 52.8655 142.573 52.9426 143.969 52.9426C147.994 52.9426 150.006 52.1406 150.006 50.5368V50.5445ZM145.28 34.8761C146.004 34.5753 146.583 34.1127 147.007 33.4881C147.431 32.8713 147.639 32.0847 147.639 31.1517C147.639 29.7561 147.184 28.7074 146.274 27.998C145.364 27.2886 144.215 26.9339 142.82 26.9339C141.941 26.9339 141.139 27.0881 140.414 27.3888C139.689 27.6896 139.103 28.1599 138.664 28.7999C138.224 29.4399 138.008 30.2264 138.008 31.1595C138.008 32.5243 138.471 33.5575 139.396 34.2746C140.322 34.984 141.463 35.3387 142.828 35.3387C143.737 35.3387 144.555 35.1845 145.28 34.8838V34.8761Z" fill="#323139"/>
<path d="M162.451 12.9775H169.082V28.1062H169.537C169.776 27.3505 170.085 26.6643 170.447 26.0628C170.81 25.4537 171.218 24.9139 171.673 24.4281C172.221 23.819 172.845 23.3255 173.555 22.9322C174.264 22.539 175.012 22.246 175.783 22.0455C176.554 21.8527 177.333 21.7525 178.119 21.7525C179.97 21.7525 181.589 22.1303 182.977 22.886C184.373 23.6416 185.452 24.7674 186.224 26.2479C186.995 27.7284 187.38 29.5019 187.38 31.5607V49.3187H180.61V33.6503C180.61 31.8614 180.232 30.4966 179.477 29.5404C178.721 28.5843 177.402 28.1062 175.529 28.1062C174.503 28.1062 173.516 28.299 172.575 28.6768C171.635 29.0546 170.84 29.7563 170.193 30.7896C169.545 31.8228 169.213 33.2416 169.213 35.0614V49.3264H162.443V12.993L162.451 12.9775Z" fill="#323139"/>
<path d="M197.721 15.7538C198.461 14.4199 199.525 13.456 200.897 12.8469C202.278 12.2377 203.935 11.937 205.871 11.937C207.506 11.937 209.109 12.1066 210.682 12.4382V18.391C210.019 18.2676 209.333 18.1519 208.639 18.0285C208.307 17.9977 207.984 17.9668 207.66 17.936C207.344 17.9052 207.028 17.8897 206.727 17.8897C205.64 17.8897 204.807 18.1134 204.228 18.5683C203.65 19.0232 203.365 19.8252 203.365 20.9741V22.2926H220.444V49.3191H213.674V27.8367H203.365V49.3191H196.595V20.8893C196.595 18.7996 196.965 17.0878 197.705 15.7538H197.721ZM213.975 18.1828C213.142 17.35 212.726 16.3399 212.726 15.1601C212.726 13.9804 213.142 13.0165 213.975 12.1837C214.808 11.351 215.818 10.9346 216.998 10.9346C218.177 10.9346 219.141 11.351 219.974 12.1837C220.807 13.0165 221.223 14.0112 221.223 15.1601C221.223 16.309 220.807 17.35 219.974 18.1828C219.141 19.0155 218.147 19.4319 216.998 19.4319C215.849 19.4319 214.808 19.0155 213.975 18.1828Z" fill="#323139"/>
<path d="M231.849 47.545C230.307 45.972 229.536 43.759 229.536 40.9137V22.292H236.306V40.505C236.306 41.9623 236.561 42.9648 237.077 43.5276C237.594 44.0905 238.303 44.3681 239.213 44.3681C240.455 44.3681 241.488 43.7898 242.305 42.6409C243.123 41.492 243.732 39.973 244.125 38.0761C244.518 36.1869 244.719 34.105 244.719 31.8303C244.719 31.1363 244.719 30.4424 244.696 29.7638C244.68 29.0852 244.642 28.3913 244.58 27.6973C244.518 26.7566 244.449 25.8313 244.38 24.9291C244.302 24.0192 244.202 23.1402 244.087 22.292H250.857C251.25 25.0756 251.45 28.106 251.45 31.3754C251.45 35.5546 250.918 39.0245 249.862 41.7773C248.798 44.5301 247.302 46.5734 245.367 47.9074C243.431 49.2414 241.095 49.9045 238.373 49.9045C235.651 49.9045 233.422 49.118 231.88 47.545H231.849Z" fill="#323139"/>
<path d="M265.005 48.1548C262.885 47.0213 261.227 45.3866 260.032 43.2507C258.837 41.1148 258.235 38.6087 258.235 35.7326C258.235 33.0107 258.798 30.5817 259.916 28.469C261.034 26.3485 262.584 24.6984 264.551 23.5186C266.517 22.3389 268.73 21.7451 271.182 21.7451C273.634 21.7451 275.831 22.3003 277.59 23.403C279.348 24.5056 280.682 26.0169 281.584 27.9215C282.494 29.8261 282.949 31.9774 282.949 34.3678V38.5008H265.368C265.669 39.6189 266.177 40.5519 266.887 41.2921C267.596 42.0324 268.452 42.5875 269.455 42.9499C270.457 43.3123 271.575 43.4974 272.817 43.4974C274.058 43.4974 275.33 43.3432 276.633 43.0425C277.937 42.7418 279.24 42.2868 280.543 41.6777V48.7177C277.821 49.4733 275.06 49.8512 272.277 49.8512C269.493 49.8512 267.126 49.2805 265.013 48.147L265.005 48.1548ZM270.681 33.8743H276.132C276.04 31.9389 275.616 30.4044 274.86 29.2863C274.104 28.1682 272.724 27.6054 270.727 27.6054C269.485 27.6054 268.46 27.8752 267.658 28.4227C266.856 28.9702 266.255 29.7027 265.861 30.628C265.468 31.5533 265.214 32.6328 265.09 33.8743H270.681Z" fill="#323139"/>
<g clip-path="url(#clip0_19003_384218)">
<path d="M32 64C49.6731 64 64 49.6731 64 32C64 14.3269 49.6731 0 32 0C14.3269 0 0 14.3269 0 32C0 49.6731 14.3269 64 32 64Z" fill="#FBBB00" stroke="#FBBB00" stroke-width="1.98391" stroke-miterlimit="10" stroke-linecap="round"/>
<path d="M45.4469 36.5009L57.932 50.597L58.7375 51.4025L51.4881 59.4574L45.4469 63.0821L36.5865 54.6244L32.1563 50.597V47.7778L25.7124 66.3041H23.2959L14.4355 63.0821L9.60253 59.8601L5.97782 57.0409L2.75586 51.4025L23.2959 30.8625L24.1014 23.613L26.9206 18.3774L34.9755 17.9746L41.0167 24.4185L45.4469 36.5009Z" fill="white" stroke="black" stroke-width="0.805491"/>
<path d="M58.2778 51.0845L53.6288 45.9146C53.6288 45.9146 46.5713 39.098 46.3249 34.2306C46.084 29.3631 46.6105 23.4371 44.7005 23.1514C42.7905 22.8658 39.6763 25.5319 38.416 32.791" fill="white"/>
<path d="M58.2778 51.0845L53.6288 45.9146C53.6288 45.9146 46.5713 39.098 46.3249 34.2306C46.084 29.3631 46.6105 23.4371 44.7005 23.1514C42.7905 22.8658 39.6763 25.5319 38.416 32.791" stroke="#323139" stroke-width="2.07244" stroke-miterlimit="10" stroke-linecap="round"/>
<path d="M26.918 27.6534C27.17 25.2729 27.7021 20.5455 28.1502 18.6467C28.5367 17.0112 29.9538 13.3704 33.0345 14.0201" fill="white"/>
<path d="M26.918 27.6534C27.17 25.2729 27.7021 20.5455 28.1502 18.6467C28.5367 17.0112 29.9538 13.3704 33.0345 14.0201" stroke="#323139" stroke-width="2.07244" stroke-miterlimit="10" stroke-linecap="round"/>
<path d="M23.6562 25.5929C24.0987 22.9323 25.6391 17.5328 28.0252 18.0369L23.6562 25.5929Z" fill="white"/>
<path d="M23.6562 25.5929C24.0987 22.9323 25.6391 17.5328 28.0252 18.0369" stroke="#323139" stroke-width="2.07244" stroke-miterlimit="10" stroke-linecap="round"/>
<path d="M30.7203 27.4883C30.5242 23.1362 30.6139 11.6314 37.2401 12.8861L30.7203 27.4883Z" fill="white"/>
<path d="M30.7203 27.4883C30.5242 23.1362 30.6139 11.6314 37.2401 12.8861" stroke="#323139" stroke-width="2.07244" stroke-miterlimit="10" stroke-linecap="round"/>
<path d="M41.413 24.4902L41.0321 14.3689C41.0321 14.3689 41.0825 11.8932 38.2819 12.4085C35.0668 12.9966 34.2434 23.8181 34.0586 28.5847" fill="white"/>
<path d="M41.413 24.4902L41.0321 14.3689C41.0321 14.3689 41.0825 11.8932 38.2819 12.4085C35.0668 12.9966 34.2434 23.8181 34.0586 28.5847" stroke="#323139" stroke-width="2.07244" stroke-miterlimit="10" stroke-linecap="round"/>
<path d="M45.7086 63.2725C45.7086 63.2725 36.0242 54.2489 32.8203 51.0059" stroke="#323139" stroke-width="2.07244" stroke-miterlimit="10" stroke-linecap="round"/>
<path d="M2.6582 51.3524L14.2471 39.6011C14.8016 39.0354 14.9976 38.2064 14.7512 37.4502L13.6197 34.0335C13.6197 34.0335 12.6955 31.4514 15.2721 28.8804C17.0309 27.1217 20.2291 29.2725 20.2291 29.2725C20.2291 29.2725 20.6436 25.6934 24.0043 25.6934C27.365 25.6934 27.1522 29.5302 27.1522 29.5302C27.1522 29.5302 29.4823 26.752 32.7198 27.9002C36.3829 29.1997 34.2377 33.3334 34.2377 33.3334C34.2377 33.3334 36.0637 31.7538 38.2929 33.0981C43.1604 36.0331 38.6458 40.4245 36.0917 42.4297C35.2291 43.1074 34.6074 44.0484 34.3721 45.1183C33.0726 50.9099 25.5166 66.4924 25.5166 66.4924" fill="white"/>
<path d="M2.6582 51.3524L14.2471 39.6011C14.8016 39.0354 14.9976 38.2064 14.7512 37.4502L13.6197 34.0335C13.6197 34.0335 12.6955 31.4514 15.2721 28.8804C17.0309 27.1217 20.2291 29.2725 20.2291 29.2725C20.2291 29.2725 20.6436 25.6934 24.0043 25.6934C27.365 25.6934 27.1522 29.5302 27.1522 29.5302C27.1522 29.5302 29.4823 26.752 32.7198 27.9002C36.3829 29.1997 34.2377 33.3334 34.2377 33.3334C34.2377 33.3334 36.0637 31.7538 38.2929 33.0981C43.1604 36.0331 38.6458 40.4245 36.0917 42.4297C35.2291 43.1074 34.6074 44.0484 34.3721 45.1183C33.0726 50.9099 25.5166 66.4924 25.5166 66.4924" stroke="#323139" stroke-width="2.07244" stroke-miterlimit="10" stroke-linecap="round"/>
</g>
<defs>
<clipPath id="clip0_19003_384218">
<rect width="64" height="64" rx="32" fill="white"/>
</clipPath>
</defs>
</svg>
