<svg width="184" height="53" viewBox="0 0 184 53" fill="none" xmlns="http://www.w3.org/2000/svg">
<g id="Layer 14">
<g id="Group">
<path id="Vector" d="M184 25.5771V25.5888C184 24.0118 183.799 24.0118 182.004 22.8319C180.209 21.6521 163.642 11.8102 163.642 11.8102V0C163.642 0 180.209 9.84186 182.004 11.0217C183.799 12.2016 184 12.2016 184 13.7786V25.5771Z" fill="#4DC480"/>
<g id="Group_2">
<g id="Group_3">
<path id="Vector_2" d="M20.607 38.538C20.5952 39.6711 20.4234 40.6232 20.1036 41.3884C19.7837 42.1535 19.3158 42.7318 18.6938 43.1231C18.0778 43.5086 17.3137 43.7072 16.4134 43.7072C15.513 43.7072 14.7726 43.5144 14.1566 43.1348C13.5406 42.7551 13.0549 42.1827 12.7173 41.4234C12.3737 40.6641 12.1842 39.7295 12.1368 38.6256H2.72449e-05C-0.0118193 42.0133 0.681201 44.7644 2.09686 46.8788C3.50659 48.9932 5.40204 50.5468 7.77134 51.5281C10.1406 52.5094 12.7646 53 15.6315 53C18.9367 53 21.8568 52.3925 24.3979 51.1835C26.939 49.9686 28.9292 48.2747 30.3804 46.1019C31.8257 43.9291 32.5602 41.4059 32.572 38.538V8.31738H20.613V38.538H20.607Z" fill="black"/>
<path id="Vector_3" d="M50.555 19.3391H38.5071V52.3984H50.555V19.3391Z" fill="black"/>
<path id="Vector_4" d="M44.5547 15.893C46.1836 15.893 47.5756 15.3615 48.7366 14.2984C49.8916 13.2354 50.4721 11.9621 50.4721 10.4668C50.4721 8.97155 49.8916 7.69824 48.7366 6.63521C47.5815 5.57217 46.1777 5.04065 44.537 5.04065C42.8962 5.04065 41.5102 5.57217 40.3433 6.63521C39.1764 7.69824 38.5959 8.97155 38.5959 10.4668C38.5959 11.9621 39.1764 13.2354 40.3433 14.2984C41.5102 15.3615 42.914 15.893 44.5547 15.893Z" fill="black"/>
<path id="Vector_5" d="M74.4435 43.7071C73.9578 43.7947 73.5313 43.8356 73.1641 43.8356C72.6428 43.8356 72.2104 43.7597 71.8787 43.6078C71.5411 43.456 71.2983 43.2282 71.1383 42.9186C70.9784 42.609 70.8955 42.2294 70.8955 41.768V27.9485H76.6588V19.339H70.8955V11.4188H58.8476V19.339H54.571V27.9485H58.8476V42.8836C58.818 45.1965 59.274 47.1182 60.2218 48.6543C61.1695 50.1905 62.5792 51.3119 64.4569 52.0245C66.3346 52.7371 68.6565 53.0175 71.4226 52.8773C72.7909 52.8072 73.9756 52.6553 74.9707 52.4275C75.9658 52.1997 76.7358 52.007 77.2748 51.8434L75.5275 43.491C75.2965 43.5494 74.9351 43.6195 74.4494 43.7071H74.4435Z" fill="black"/>
<path id="Vector_6" d="M110.178 35.6234C108.496 34.169 105.937 33.1293 102.508 32.5102L95.6961 31.307C94.4167 31.0792 93.5519 30.7521 93.1077 30.3374C92.6634 29.9227 92.4502 29.4671 92.4621 28.9823C92.4502 28.2931 92.8115 27.7616 93.5519 27.3878C94.2923 27.0139 95.1808 26.827 96.2174 26.827C97.017 26.827 97.7515 26.9614 98.409 27.2242C99.0724 27.4871 99.6114 27.8667 100.038 28.3515C100.458 28.8421 100.701 29.4204 100.761 30.0921H111.849C111.701 26.5934 110.232 23.8482 107.43 21.8681C104.628 19.8881 100.808 18.8951 95.9568 18.8951C92.7701 18.8951 90.0157 19.3157 87.6938 20.1568C85.3719 20.9979 83.589 22.2186 82.3451 23.8132C81.1013 25.4135 80.4852 27.3586 80.503 29.6599C80.4912 32.259 81.3323 34.3793 83.0322 36.0322C84.7322 37.6852 87.297 38.8008 90.7147 39.3907L96.6498 40.4246C97.9588 40.6524 98.9243 40.9561 99.5403 41.3299C100.156 41.7037 100.476 42.206 100.488 42.8368C100.476 43.5261 100.109 44.0576 99.3863 44.4314C98.6637 44.8052 97.7515 44.9921 96.6439 44.9921C95.2756 44.9921 94.1443 44.7118 93.2498 44.1394C92.3554 43.5728 91.8283 42.7668 91.6683 41.7154H79.7093C80.0469 45.1031 81.658 47.8308 84.5427 49.8926C87.4332 51.9603 91.4373 52.9941 96.5609 52.9941C99.6588 52.9941 102.419 52.5268 104.848 51.5865C107.27 50.6461 109.183 49.3144 110.587 47.5855C111.991 45.8566 112.702 43.8181 112.714 41.4642C112.702 39.0228 111.849 37.0778 110.173 35.6175L110.178 35.6234Z" fill="black"/>
<path id="Vector_7" d="M139.084 19.3391V37.9364C139.096 39.0287 138.906 39.9632 138.504 40.7459C138.101 41.5286 137.538 42.1302 136.804 42.5565C136.069 42.9771 135.198 43.1932 134.197 43.1932C132.681 43.1932 131.508 42.7259 130.673 41.7914C129.838 40.8569 129.411 39.5719 129.394 37.9364V19.3391H117.346V40.4305C117.357 42.8427 117.849 44.9805 118.821 46.8437C119.786 48.707 121.148 50.173 122.902 51.2361C124.655 52.2991 126.704 52.8306 129.044 52.8306C131.55 52.8306 133.706 52.2407 135.524 51.055C137.343 49.8693 138.616 48.2222 139.345 46.1136H139.694V52.3984H151.132V19.3391H139.084Z" fill="black"/>
</g>
<path id="Vector_8" d="M184 13.726V13.7144C184 15.2914 183.799 15.2914 182.004 16.4712C180.209 17.6511 163.642 27.493 163.642 27.493V39.3032C163.642 39.3032 180.209 29.4613 182.004 28.2815C183.799 27.1016 184 27.1016 184 25.5246V13.726Z" fill="black"/>
</g>
<g id="Group_4">
<path id="Vector_9" d="M81.3678 12.0381C80.728 12.0381 80.1535 11.8746 79.65 11.5533C79.1465 11.2263 78.7438 10.759 78.4535 10.1399C78.1574 9.52072 78.0152 8.77309 78.0152 7.89112C78.0152 7.00915 78.1633 6.244 78.4654 5.63071C78.7674 5.01742 79.1702 4.55015 79.6796 4.23474C80.189 3.91933 80.7577 3.76163 81.3855 3.76163C81.8653 3.76163 82.2562 3.8434 82.5643 4.00111C82.8723 4.15881 83.1151 4.35156 83.2987 4.57351C83.4764 4.79546 83.6186 5.00573 83.7193 5.19848H83.7963V1.19165H85.7214V11.9038H83.8318V10.6363H83.7134C83.6127 10.8291 83.4705 11.0393 83.281 11.2555C83.0914 11.4716 82.8486 11.6585 82.5406 11.8103C82.2326 11.9622 81.8475 12.0381 81.3796 12.0381H81.3678ZM81.9009 10.4845C82.3096 10.4845 82.6531 10.3735 82.9433 10.1574C83.2277 9.94126 83.4468 9.63754 83.5949 9.2462C83.743 8.85486 83.82 8.39928 83.82 7.87944C83.82 7.3596 83.7489 6.90986 83.6008 6.52436C83.4527 6.13886 83.2395 5.84098 82.9552 5.63071C82.6709 5.42044 82.3214 5.30946 81.9068 5.30946C81.4921 5.30946 81.119 5.42044 80.8347 5.63655C80.5503 5.8585 80.3312 6.16223 80.189 6.54772C80.0469 6.93322 79.9699 7.37713 79.9699 7.87944C79.9699 8.38175 80.041 8.8315 80.189 9.22284C80.3371 9.61418 80.5563 9.92374 80.8406 10.1457C81.1308 10.3735 81.4803 10.4845 81.9068 10.4845H81.9009Z" fill="black"/>
<path id="Vector_10" d="M90.9931 12.0556C90.1756 12.0556 89.4708 11.8862 88.8785 11.5533C88.2861 11.2145 87.83 10.7414 87.5102 10.1223C87.1903 9.50317 87.0304 8.77306 87.0304 7.93197C87.0304 7.09089 87.1903 6.3783 87.5102 5.75333C87.83 5.12836 88.2802 4.63773 88.8548 4.28727C89.4293 3.93682 90.1105 3.7616 90.8864 3.7616C91.3899 3.7616 91.8638 3.84337 92.3139 4.00107C92.7582 4.15878 93.155 4.40409 93.5045 4.73702C93.854 5.06995 94.1205 5.49049 94.3219 5.99865C94.5174 6.51264 94.6181 7.12009 94.6181 7.821V8.39924H87.9367V7.12009H92.776C92.776 6.75796 92.693 6.43671 92.539 6.15051C92.385 5.86431 92.1659 5.64235 91.8875 5.47881C91.6091 5.31527 91.2892 5.23349 90.922 5.23349C90.531 5.23349 90.1816 5.32695 89.8854 5.51386C89.5892 5.70076 89.3582 5.94608 89.1924 6.24396C89.0265 6.54769 88.9436 6.87478 88.9377 7.23691V8.35252C88.9377 8.81979 89.0265 9.2228 89.1983 9.55573C89.3701 9.88866 89.6129 10.1457 89.9269 10.3209C90.2408 10.4961 90.6021 10.5837 91.0167 10.5837C91.2951 10.5837 91.5498 10.5428 91.7749 10.4669C92 10.391 92.1955 10.2742 92.3613 10.1165C92.5272 9.96459 92.6516 9.77185 92.7404 9.54405L94.5352 9.74264C94.4226 10.2099 94.2094 10.6188 93.8895 10.9634C93.5697 11.308 93.1669 11.5767 92.6753 11.7694C92.1836 11.9622 91.6209 12.0556 90.9871 12.0556H90.9931Z" fill="black"/>
<path id="Vector_11" d="M97.787 1.18579V11.8979H95.8679V1.18579H97.787Z" fill="black"/>
<path id="Vector_12" d="M100.352 2.7219C100.05 2.7219 99.7832 2.6226 99.564 2.42401C99.3448 2.22542 99.2323 1.98011 99.2323 1.69974C99.2323 1.41938 99.3448 1.16823 99.564 0.969637C99.7832 0.771048 100.044 0.671753 100.352 0.671753C100.66 0.671753 100.92 0.771048 101.14 0.969637C101.359 1.16823 101.465 1.41354 101.465 1.69974C101.465 1.98595 101.359 2.22542 101.14 2.42401C100.92 2.6226 100.66 2.7219 100.352 2.7219ZM99.3863 11.8979V3.86086H101.305V11.8979H99.3863Z" fill="black"/>
<path id="Vector_13" d="M110.184 3.86084L107.282 11.8979H105.161L102.259 3.86084H104.309L106.18 9.8302H106.263L108.141 3.86084H110.184Z" fill="black"/>
<path id="Vector_14" d="M114.467 12.0556C113.65 12.0556 112.945 11.8862 112.352 11.5533C111.76 11.2145 111.304 10.7414 110.984 10.1223C110.664 9.50317 110.504 8.77306 110.504 7.93197C110.504 7.09089 110.664 6.3783 110.984 5.75333C111.304 5.12836 111.754 4.63773 112.329 4.28727C112.903 3.93682 113.584 3.7616 114.36 3.7616C114.864 3.7616 115.338 3.84337 115.788 4.00107C116.232 4.15878 116.629 4.40409 116.978 4.73702C117.328 5.06995 117.594 5.49049 117.796 5.99865C117.991 6.51264 118.092 7.12009 118.092 7.821V8.39924H111.411V7.12009H116.25C116.25 6.75796 116.167 6.43671 116.013 6.15051C115.859 5.86431 115.64 5.64235 115.361 5.47881C115.083 5.31527 114.763 5.23349 114.396 5.23349C114.005 5.23349 113.655 5.32695 113.359 5.51386C113.063 5.70076 112.832 5.94608 112.666 6.24396C112.5 6.54769 112.417 6.87478 112.412 7.23691V8.35252C112.412 8.81979 112.5 9.2228 112.672 9.55573C112.844 9.88866 113.087 10.1457 113.401 10.3209C113.715 10.4961 114.076 10.5837 114.491 10.5837C114.769 10.5837 115.024 10.5428 115.249 10.4669C115.474 10.391 115.669 10.2742 115.835 10.1165C116.001 9.96459 116.125 9.77185 116.214 9.54405L118.009 9.74264C117.896 10.2099 117.683 10.6188 117.363 10.9634C117.044 11.308 116.641 11.5767 116.149 11.7694C115.658 11.9622 115.095 12.0556 114.461 12.0556H114.467Z" fill="black"/>
<path id="Vector_15" d="M119.336 11.8979V3.86084H121.196V5.19839H121.279C121.427 4.73697 121.681 4.37483 122.043 4.12367C122.404 3.87252 122.819 3.74402 123.287 3.74402C123.393 3.74402 123.512 3.74402 123.642 3.7557C123.772 3.76738 123.885 3.77906 123.974 3.79659V5.53716C123.891 5.50796 123.766 5.4846 123.589 5.46123C123.417 5.43787 123.245 5.42619 123.079 5.42619C122.73 5.42619 122.416 5.50212 122.138 5.64814C121.859 5.79416 121.64 5.99859 121.48 6.26143C121.32 6.52427 121.243 6.82215 121.243 7.16677V11.892H119.324H119.336V11.8979Z" fill="black"/>
<path id="Vector_16" d="M126.337 14.9118C126.076 14.9118 125.834 14.8943 125.614 14.8534C125.395 14.8125 125.218 14.7658 125.087 14.7132L125.532 13.2354C125.81 13.3172 126.059 13.3523 126.278 13.3523C126.497 13.3523 126.692 13.2822 126.858 13.1537C127.024 13.0252 127.166 12.8032 127.285 12.4995L127.451 12.0673L124.495 3.8667H126.533L128.41 9.93536H128.493L130.377 3.8667H132.42L129.157 12.8733C129.003 13.2997 128.801 13.6618 128.552 13.9714C128.304 14.2751 127.996 14.5088 127.634 14.6723C127.273 14.8358 126.841 14.9176 126.337 14.9176V14.9118Z" fill="black"/>
<path id="Vector_17" d="M136.798 11.8979V1.18579H138.717V5.19262H138.794C138.894 4.99988 139.031 4.7896 139.214 4.56765C139.392 4.3457 139.641 4.15879 139.949 3.99525C140.257 3.83754 140.648 3.75577 141.127 3.75577C141.755 3.75577 142.324 3.91347 142.833 4.22888C143.343 4.54429 143.746 5.01156 144.042 5.62485C144.338 6.23814 144.492 6.99745 144.492 7.88526C144.492 8.77307 144.344 9.51486 144.054 10.134C143.757 10.7531 143.361 11.2204 142.857 11.5475C142.354 11.8746 141.779 12.0323 141.139 12.0323C140.671 12.0323 140.286 11.9563 139.978 11.8045C139.67 11.6526 139.422 11.4657 139.238 11.2496C139.054 11.0335 138.906 10.8232 138.806 10.6305H138.693V11.8979H136.798ZM138.681 7.87942C138.681 8.39926 138.758 8.85485 138.906 9.24618C139.054 9.63752 139.273 9.94125 139.558 10.1574C139.842 10.3735 140.186 10.4844 140.594 10.4844C141.003 10.4844 141.376 10.3735 141.661 10.1457C141.945 9.92372 142.164 9.61416 142.312 9.22282C142.46 8.83148 142.531 8.38174 142.531 7.87942C142.531 7.37711 142.46 6.93904 142.312 6.5477C142.164 6.16221 141.951 5.85848 141.666 5.63653C141.382 5.41458 141.021 5.30944 140.594 5.30944C140.168 5.30944 139.836 5.41458 139.552 5.63069C139.268 5.84096 139.048 6.14468 138.9 6.52434C138.752 6.904 138.681 7.35958 138.681 7.87942Z" fill="black"/>
<path id="Vector_18" d="M146.666 14.9118C146.405 14.9118 146.162 14.8943 145.943 14.8534C145.724 14.8125 145.546 14.7658 145.416 14.7132L145.86 13.2354C146.139 13.3172 146.387 13.3523 146.607 13.3523C146.826 13.3523 147.021 13.2822 147.187 13.1537C147.353 13.0252 147.495 12.8032 147.613 12.4995L147.779 12.0673L144.824 3.8667H146.861L148.739 9.93536H148.822L150.705 3.8667H152.749L149.485 12.8733C149.331 13.2997 149.13 13.6618 148.881 13.9714C148.632 14.2751 148.324 14.5088 147.963 14.6723C147.602 14.8358 147.169 14.9176 146.666 14.9176V14.9118Z" fill="black"/>
</g>
</g>
</g>
</svg>
